<svg width="47" height="23" viewBox="0 0 47 23" fill="none" xmlns="http://www.w3.org/2000/svg">
<g clip-path="url(#clip0_4403_698)">
<path d="M8.00664 6.50311C8.45963 6.34774 8.94282 6.26487 9.44413 6.26487C11.6386 6.26487 13.4707 7.8683 13.8895 10L17 9.34744C16.2873 5.72625 13.1748 3 9.44413 3C8.58848 3 7.76908 3.14294 7 3.40811L8.00664 6.50311Z" fill="#323238"/>
<path d="M3.76423 17L6 14.5297C5.003 13.6659 4.37398 12.4046 4.37398 10.999C4.37398 9.59543 5.003 8.33415 6 7.47237L3.76423 5C2.06975 6.46836 1 8.61234 1 10.999C1 13.3877 2.06975 15.5316 3.76423 17Z" fill="#53555E"/>
<path d="M13.8895 12C13.4687 14.1309 11.6386 15.7332 9.44614 15.7332C8.94282 15.7332 8.45762 15.6503 8.00664 15.4927L7 18.5937C7.76908 18.857 8.5905 19 9.44614 19C13.1727 19 16.2833 16.2763 17 12.6571L13.8895 12Z" fill="#E1E1E6"/>
<path d="M21.8148 15.4128C21.6981 15.2251 21.5424 14.9251 21.4462 14.7031C20.8853 13.4026 20.8601 12.0564 21.3318 10.7651C21.8515 9.34783 22.8451 8.26488 24.1296 7.71081C25.7437 7.01708 27.5272 7.15217 29.075 8.07027C30.0572 8.6335 30.7532 9.50352 31.2821 10.7353C31.3485 10.8933 31.408 11.0604 31.4675 11.2046L21.8148 15.4128ZM25.0385 9.80116C23.8915 10.2934 23.3008 11.3695 23.4244 12.6287L28.2782 10.5384C27.4425 9.55847 26.3573 9.23336 25.0385 9.80116V9.80116ZM28.8826 14.3482C28.8804 14.3482 28.8804 14.3505 28.8804 14.3505L28.7796 14.2818C28.4888 14.7511 28.0378 15.1335 27.4677 15.3808C26.3825 15.8524 25.3774 15.7311 24.6539 15.0969L24.5875 15.1976C24.5875 15.1976 24.5875 15.1953 24.5852 15.1953L23.3534 17.0384C23.6602 17.2513 23.9876 17.4299 24.331 17.5741C25.691 18.1397 27.0831 18.1122 28.4545 17.5169C29.4459 17.0865 30.2243 16.4317 30.7555 15.6006L28.8826 14.3482ZM34.84 5V15.2434L36.4335 15.889L35.5292 18L33.7708 17.2673C33.377 17.0956 33.1068 16.8346 32.9054 16.5393C32.7108 16.2393 32.5665 15.8249 32.5665 15.2709V5H34.84ZM38.9658 12.6356C38.9658 11.7633 39.3527 10.9803 39.9617 10.4491L38.327 8.62663C37.2189 9.60655 36.5206 11.0375 36.5206 12.631C36.5183 14.2268 37.2166 15.6601 38.3224 16.64L39.9549 14.8175C39.3481 14.2841 38.9658 13.5056 38.9658 12.6356V12.6356ZM41.8689 15.541C41.5484 15.541 41.237 15.4861 40.9485 15.3899L40.1678 17.7092C40.7012 17.8878 41.2713 17.9863 41.8666 17.9863C44.4538 17.9886 46.6128 16.1523 47.1142 13.714L44.7148 13.224C44.4424 14.5497 43.2724 15.5433 41.8689 15.541V15.541ZM41.8758 7.28496C41.2828 7.28496 40.7127 7.38112 40.1792 7.55741L40.9531 9.87901C41.2439 9.78285 41.553 9.73019 41.8735 9.73019C43.2793 9.73248 44.4515 10.7307 44.7171 12.0586L47.1165 11.5733C46.6243 9.13033 44.4652 7.28725 41.8758 7.28496V7.28496Z" fill="white"/>
</g>
<defs>
<clipPath id="clip0_4403_698">
<rect width="46.5428" height="21.9868" fill="white" transform="translate(0.457275 0.696533)"/>
</clipPath>
</defs>
</svg>

