<svg width="31" height="24" viewBox="0 0 31 24" fill="none" xmlns="http://www.w3.org/2000/svg">
<path d="M30.0137 16.4831C30.0137 17.4421 28.8695 18.621 27.9388 18.621H27.0914C27.0924 12.7518 27.0924 6.17183 27.0914 5.00389C27.0911 4.96931 27.0976 4.93499 27.1105 4.90291C27.1234 4.87083 27.1425 4.84162 27.1667 4.81694C27.191 4.79226 27.2198 4.77261 27.2517 4.7591C27.2835 4.74559 27.3177 4.7385 27.3523 4.73823H29.7517C29.8958 4.73823 30.0138 4.85915 30.0138 5.00597L30.0137 16.4831ZM26.1038 20.6806C26.1038 21.2876 25.8068 22.3046 23.817 22.3046C19.9609 22.3046 17.5938 19.2835 17.5938 17.1169C17.5938 17.1169 17.5895 10.111 17.5895 5.0061C17.5891 4.97147 17.5956 4.9371 17.6085 4.90497C17.6215 4.87284 17.6406 4.84358 17.6649 4.81889C17.6892 4.7942 17.7181 4.77456 17.7501 4.76109C17.782 4.74763 17.8162 4.74061 17.8509 4.74044H20.2531C20.3974 4.74044 20.5158 4.86058 20.5158 5.00832V16.265C20.5158 18.1248 21.9878 19.6334 23.8024 19.6334H26.1051L26.1038 20.6806ZM29.9338 3.72869H27.1698C26.5821 3.72869 26.1035 4.21953 26.1035 4.82166V18.6222H23.8007C22.5302 18.6222 21.5005 17.5666 21.5005 16.2647V4.82166C21.5005 4.2181 21.0225 3.72817 20.4337 3.72817H17.6685C17.0797 3.72817 16.6018 4.2181 16.6009 4.82166C16.5995 9.81128 16.6052 17.1171 16.6052 17.1171C16.6056 20.9573 20.8053 23.3153 23.8162 23.3153C25.8358 23.3153 27.0901 22.3036 27.0901 20.6737V19.6332H27.9384C29.4263 19.6332 31.0001 18.0143 31.0001 16.4831V4.82166C31.0015 4.2181 30.5236 3.72869 29.9338 3.72869ZM13.5982 18.3768C13.5986 18.4114 13.5921 18.4457 13.5791 18.4778C13.5662 18.5099 13.547 18.5391 13.5227 18.5637C13.4984 18.5883 13.4695 18.6079 13.4377 18.6214C13.4058 18.6348 13.3716 18.6418 13.337 18.642H10.9347C10.7886 18.642 10.6714 18.5208 10.6721 18.3748V7.11798C10.6721 5.25822 9.19967 3.74965 7.38548 3.74965H5.08265V2.70224C5.08265 2.09647 5.37968 1.07821 7.36947 1.07821C11.2256 1.07821 13.5934 4.09914 13.5934 6.26594C13.5934 6.26594 13.5982 13.3059 13.5982 18.3768ZM1.43357 18.6443C1.2874 18.64 1.17051 18.5222 1.17221 18.3761V6.901C1.17221 5.94184 2.31659 4.7614 3.24686 4.7614H4.09499C4.09369 13.1663 4.09369 17.4671 4.09499 18.3755C4.09565 18.4457 4.06848 18.5133 4.01942 18.5635C3.97036 18.6137 3.90342 18.6425 3.83323 18.6434L1.43357 18.6443ZM14.5794 6.26607C14.5799 2.42551 10.3801 0.0675049 7.3696 0.0675049C5.34949 0.0675049 4.09499 1.07912 4.09499 2.70914V3.74965H3.24724C1.75884 3.74965 0.185059 5.36847 0.185059 6.89983V18.5611C0.185059 19.1647 0.662883 19.6546 1.25147 19.6546H4.01494C4.03212 19.6546 4.04683 19.65 4.06401 19.65C4.62878 19.6227 5.08122 19.1471 5.08122 18.5611V4.76062H7.38444C8.65442 4.76062 9.68465 5.81623 9.68465 7.11811V18.5613C9.68465 19.1648 10.1626 19.6548 10.7511 19.6548H13.5167C14.1056 19.6548 14.5832 19.1661 14.5832 18.5613C14.5852 13.4786 14.5794 6.26607 14.5794 6.26607Z" fill="white"/>
</svg>
